<svg xmlns="http://www.w3.org/2000/svg" width="16" height="16" viewBox="0 0 16 16" fill="none">
<g opacity="0.8">
<g opacity="0.6">
<path d="M12.3636 2H3.63636C3.20237 2 2.78616 2.1724 2.47928 2.47928C2.1724 2.78616 2 3.20237 2 3.63636V12.3636C2 12.7976 2.1724 13.2138 2.47928 13.5207C2.78616 13.8276 3.20237 14 3.63636 14H12.3636C12.7976 14 13.2138 13.8276 13.5207 13.5207C13.8276 13.2138 14 12.7976 14 12.3636V3.63636C14 3.20237 13.8276 2.78616 13.5207 2.47928C13.2138 2.1724 12.7976 2 12.3636 2ZM12.9091 12.3636C12.9091 12.5083 12.8516 12.647 12.7493 12.7493C12.647 12.8516 12.5083 12.9091 12.3636 12.9091H3.63636C3.4917 12.9091 3.35296 12.8516 3.25067 12.7493C3.14838 12.647 3.09091 12.5083 3.09091 12.3636V3.63636C3.09091 3.4917 3.14838 3.35296 3.25067 3.25067C3.35296 3.14838 3.4917 3.09091 3.63636 3.09091H12.3636C12.5083 3.09091 12.647 3.14838 12.7493 3.25067C12.8516 3.35296 12.9091 3.4917 12.9091 3.63636V12.3636ZM11.2727 4.72727V8.54545C11.2727 8.69012 11.2153 8.82886 11.113 8.93115C11.0107 9.03344 10.8719 9.09091 10.7273 9.09091C10.5826 9.09091 10.4439 9.03344 10.3416 8.93115C10.2393 8.82886 10.1818 8.69012 10.1818 8.54545V4.72727C10.1818 4.58261 10.2393 4.44387 10.3416 4.34158C10.4439 4.23929 10.5826 4.18182 10.7273 4.18182C10.8719 4.18182 11.0107 4.23929 11.113 4.34158C11.2153 4.44387 11.2727 4.58261 11.2727 4.72727ZM8.54545 4.72727V11.2727C8.54545 11.4174 8.48799 11.5561 8.38569 11.6584C8.2834 11.7607 8.14466 11.8182 8 11.8182C7.85534 11.8182 7.7166 11.7607 7.61431 11.6584C7.51201 11.5561 7.45455 11.4174 7.45455 11.2727V4.72727C7.45455 4.58261 7.51201 4.44387 7.61431 4.34158C7.7166 4.23929 7.85534 4.18182 8 4.18182C8.14466 4.18182 8.2834 4.23929 8.38569 4.34158C8.48799 4.44387 8.54545 4.58261 8.54545 4.72727ZM5.81818 4.72727V6.90909C5.81818 7.05375 5.76071 7.19249 5.65842 7.29479C5.55613 7.39708 5.41739 7.45455 5.27273 7.45455C5.12806 7.45455 4.98933 7.39708 4.88703 7.29479C4.78474 7.19249 4.72727 7.05375 4.72727 6.90909V4.72727C4.72727 4.58261 4.78474 4.44387 4.88703 4.34158C4.98933 4.23929 5.12806 4.18182 5.27273 4.18182C5.41739 4.18182 5.55613 4.23929 5.65842 4.34158C5.76071 4.44387 5.81818 4.58261 5.81818 4.72727Z" fill="black"/>
</g>
</g>
</svg>