<svg xmlns="http://www.w3.org/2000/svg" width="34" height="34" viewBox="0 0 34 34" fill="none">
<path d="M11.6569 30.4429H22.5685C25.5691 30.4429 28.0242 27.9878 28.0242 24.9871V9.98377C28.0242 7.25589 26.1147 5.07358 23.5232 4.6644C22.9776 3.70964 22.0229 3.16406 20.9317 3.16406H13.2937C12.2025 3.16406 11.2478 3.70964 10.7022 4.6644C8.11069 5.07358 6.20117 7.25589 6.20117 9.98377V24.9871C6.20117 27.9878 8.65627 30.4429 11.6569 30.4429ZM13.0209 6.02834C13.0209 6.02834 13.1573 5.89194 13.2937 5.89194H21.0681L21.2045 6.02834V6.9831C21.2045 7.11949 21.0681 7.25589 20.9317 7.25589H13.2937C13.1573 7.25589 13.0209 7.11949 13.0209 6.9831V6.02834ZM8.92905 9.98377C8.92905 8.89261 9.47463 8.07425 10.293 7.52867V7.66507C10.293 7.80146 10.4294 7.93786 10.4294 8.07425C10.4294 8.07425 10.4294 8.21064 10.5658 8.21064C10.5658 8.34704 10.7022 8.48343 10.7022 8.48343L10.8386 8.61983C10.8386 8.75622 10.975 8.75622 11.1114 8.89261L11.2478 9.02901L11.5205 9.3018L11.6569 9.43819C11.7933 9.43819 11.7933 9.57458 11.9297 9.57458C11.9297 9.57458 12.0661 9.57459 12.0661 9.71098C12.2025 9.71098 12.3389 9.84737 12.4753 9.84737H12.6117C12.8845 9.98377 13.0209 9.98377 13.2937 9.98377H21.7501C21.8865 9.98377 22.0229 9.98377 22.1593 9.84737C22.1593 9.84737 22.2957 9.84737 22.2957 9.71098C22.4321 9.71098 22.4321 9.57458 22.5685 9.57458L22.7049 9.43819C22.8413 9.43819 22.8413 9.3018 22.9776 9.1654L23.114 9.02901L23.3868 8.75622L23.5232 8.61983C23.5232 8.48343 23.6596 8.48343 23.6596 8.34704C23.6596 8.34704 23.6596 8.21064 23.796 8.21064C23.796 8.07425 23.9324 7.93786 23.9324 7.80146V7.66507C24.7508 8.07425 25.2963 9.02901 25.2963 10.1202V25.1235C25.2963 26.6238 24.0688 27.8514 22.5685 27.8514H11.6569C10.1566 27.8514 8.92905 26.6238 8.92905 25.1235V9.98377Z" fill="#7B1984"/>
<path d="M13.0221 22.2588H15.75C16.5684 22.2588 17.114 21.7133 17.114 20.8949C17.114 20.0765 16.5684 19.531 15.75 19.531H13.0221C12.2038 19.531 11.6582 20.0765 11.6582 20.8949C11.6582 21.7133 12.2038 22.2588 13.0221 22.2588ZM13.0221 16.8031H21.2058C22.0242 16.8031 22.5697 16.2575 22.5697 15.4391C22.5697 14.6208 22.0242 14.0752 21.2058 14.0752H13.0221C12.2038 14.0752 11.6582 14.6208 11.6582 15.4391C11.6582 16.2575 12.2038 16.8031 13.0221 16.8031Z" fill="#7B1984"/>
</svg>